<svg width="672" height="150" viewBox="0 0 672 150" fill="none" xmlns="http://www.w3.org/2000/svg">
<g clip-path="url(#clip0_104_752)">
<rect width="150" height="150" rx="75" fill="white"/>
<path d="M85.8509 16.534C84.434 15.0984 82.7431 13.958 80.877 13.1795C79.0109 12.401 77.0073 12 74.9833 12C72.9592 12 70.9556 12.401 69.0895 13.1795C67.2234 13.958 65.5325 15.0984 64.1156 16.534L9.48009 71.7912C6.60655 74.7398 5 78.6827 5 82.7863C5 86.8899 6.60655 90.8327 9.48009 93.7814L48.4705 133.222C51.1865 135.607 54.7285 137.067 58.6206 137.067H91.3599C93.3958 137.065 95.4108 136.659 97.2862 135.872C99.1616 135.085 100.86 133.934 102.28 132.485L140.514 93.8162C143.391 90.8692 145 86.9257 145 82.821C145 78.7164 143.391 74.7729 140.514 71.8259L85.8579 16.534H85.8509ZM84.3388 117.468L78.8788 122.974C78.6766 123.183 78.4342 123.349 78.166 123.462C77.8978 123.576 77.6093 123.634 77.3178 123.635H72.6487C72.1159 123.63 71.6033 123.432 71.2067 123.079L65.6417 117.461C65.2311 117.04 65.0015 116.476 65.0015 115.89C65.0015 115.303 65.2311 114.74 65.6417 114.319L73.4397 106.435C73.6413 106.229 73.8824 106.065 74.1487 105.954C74.415 105.842 74.7012 105.784 74.9902 105.784C75.2793 105.784 75.5655 105.842 75.8318 105.954C76.0981 106.065 76.3392 106.229 76.5408 106.435L84.3388 114.326C84.751 114.746 84.9817 115.31 84.9817 115.897C84.9817 116.484 84.751 117.047 84.3388 117.468ZM84.3388 84.3818L62.5336 106.442C62.3298 106.647 62.0867 106.81 61.8187 106.921C61.5507 107.032 61.263 107.089 60.9726 107.088H56.3106C55.7748 107.09 55.2568 106.897 54.8545 106.546L49.3035 100.928C48.8925 100.506 48.6627 99.9413 48.6627 99.3537C48.6627 98.7662 48.8925 98.2016 49.3035 97.779L73.4467 73.3624C73.6488 73.1574 73.89 72.9946 74.1563 72.8834C74.4225 72.7723 74.7084 72.715 74.9972 72.715C75.2861 72.715 75.572 72.7723 75.8382 72.8834C76.1045 72.9946 76.3457 73.1574 76.5478 73.3624L84.3458 81.2533C84.7572 81.6715 84.9874 82.2329 84.9874 82.8176C84.9874 83.4022 84.7572 83.9636 84.3458 84.3818H84.3388ZM84.3388 51.3165L46.1885 89.902C45.9849 90.1102 45.741 90.2754 45.4716 90.3877C45.2021 90.5 44.9126 90.5571 44.6204 90.5555H39.9514C39.4178 90.5572 38.9021 90.3643 38.5024 90.0132L32.9443 84.3818C32.5347 83.9628 32.3055 83.4017 32.3055 82.8176C32.3055 82.2335 32.5347 81.6724 32.9443 81.2533L73.4397 40.2901C73.6418 40.0852 73.883 39.9223 74.1493 39.8112C74.4155 39.7 74.7014 39.6427 74.9902 39.6427C75.2791 39.6427 75.565 39.7 75.8312 39.8112C76.0975 39.9223 76.3387 40.0852 76.5408 40.2901L84.3388 48.1741C84.751 48.5946 84.9817 49.1584 84.9817 49.7453C84.9817 50.3322 84.751 50.896 84.3388 51.3165V51.3165Z" fill="#2B4A78"/>
</g>
<path d="M179.286 31.4287H190.715V63.2142C195.358 56.4285 201.786 52.8571 209.286 52.8571C219.643 52.8571 225.715 58.5714 225.715 70V108.929H214.286V73.2142C214.286 65.3571 211.429 63.2142 205.714 63.2142C202.143 63.2142 198.929 65.3571 195.714 69.2857C192.5 73.5714 191.072 78.9285 191.072 85.7142V108.929H179.643L179.286 31.4287Z" fill="#2B4A78"/>
<path d="M282.857 84.2857H243.929C243.929 92.8571 248.929 99.6429 257.5 99.6429C263.572 99.6429 269.286 96.0714 271.786 90.3571L281.429 94.2857C275.714 105 269.286 109.643 257.143 109.643C238.929 109.643 231.429 94.2857 231.429 81.0714C231.429 67.8571 238.929 52.5 257.143 52.5C274.643 52.5 282.5 66.7857 282.5 79.2857V84.2857H282.857ZM244.286 75H271.072C270 68.2143 265.357 62.8571 257.857 62.8571C250.357 62.8571 245.714 67.8571 244.286 75Z" fill="#2B4A78"/>
<path d="M372.143 52.8572C375 52.8572 377.5 53.5715 380.714 55C383.571 56.4286 385.714 57.8572 387.143 59.6429V31.0713H398.571V108.571H387.143V102.143C385 105.714 378.929 109.286 372.143 109.286C356.071 109.286 347.5 98.9286 347.5 80.7143C347.5 63.5715 356.071 52.8572 372.143 52.8572ZM359.286 81.0715C359.286 86.7858 360.714 91.0715 363.214 94.6429C365.714 97.8572 369.286 99.6429 373.214 99.6429C377.5 99.6429 380.714 97.8572 383.214 94.6429C385.714 91.4286 387.143 86.7858 387.143 81.0715C387.143 75.3572 385.714 71.0715 383.214 67.8572C380.714 64.6429 377.143 62.8572 373.214 62.8572C368.929 62.8572 365.714 64.6429 363.214 67.8572C360.714 71.0715 359.286 75.7143 359.286 81.0715Z" fill="#2B4A78"/>
<path d="M441.786 61.4286L434.643 67.8572C432.143 64.6429 428.929 62.8572 425 62.8572C421.786 62.8572 419.643 65 419.643 68.2143C419.643 69.2858 420 70.7143 421.072 71.4286C422.858 73.2143 424.643 74.2857 429.643 76.0715C433.572 77.5 435 78.2143 438.215 80C442.5 82.5 444.643 86.0715 445 91.7858C445 96.7858 443.215 100.714 439.643 104.286C436.072 107.5 431.429 109.286 425.715 109.286C415.358 109.286 407.858 102.5 404.286 94.6429L413.929 89.2858C416.786 96.0715 421.072 99.2857 426.072 99.2857C431.072 99.2857 433.572 96.7857 433.572 92.1429C433.572 90.3572 432.858 88.9286 430.715 87.8572C429.643 87.1429 428.929 86.7858 427.858 86.4286C426.072 85.7143 422.143 84.2857 420.358 83.5715C412.5 80.3572 408.572 75.3572 408.572 68.5715C408.572 64.2858 410.358 60.3572 413.215 57.5C416.429 54.2858 420.358 52.8572 425.358 52.8572C432.143 52.8572 438.215 56.0715 441.786 61.4286Z" fill="#BFC1C4"/>
<path d="M478.214 109.643C471.785 109.643 466.071 106.429 463.571 102.5V131.072H452.143V53.5715H463.571V60C465.714 56.4286 471.785 52.8572 478.571 52.8572C494.643 52.8572 503.214 63.2143 503.214 81.4286C502.857 98.5715 494.285 109.643 478.214 109.643ZM491.071 81.0715C491.071 75.3572 489.643 71.0715 487.143 67.8572C484.643 64.6429 481.071 62.8572 477.143 62.8572C472.857 62.8572 469.643 64.6429 467.143 67.8572C464.643 71.0715 463.214 75.7143 463.214 81.0715C463.214 86.7858 464.643 91.0715 467.143 94.6429C469.643 97.8572 473.214 99.6429 477.143 99.6429C481.428 99.6429 484.643 97.8572 487.143 94.6429C489.643 91.4286 491.071 86.7858 491.071 81.0715Z" fill="#BFC1C4"/>
<path d="M615.357 94.2857C610.715 104.286 602.857 109.643 591.429 109.643C583.215 109.643 576.786 106.786 572.143 101.429C567.5 96.0714 565.357 89.2857 565.357 81.0714C565.357 72.8571 567.5 66.0714 572.143 60.7143C576.786 55.3571 583.215 52.5 591.429 52.5C602.857 52.5 610.715 57.5 615.357 67.8571L605.357 72.1429C602.5 65.7143 597.857 62.5 591.786 62.5C582.5 62.5 577.857 70 577.857 80.7143C577.857 91.7857 582.5 98.9286 591.786 98.9286C597.857 98.9286 602.5 95.7143 605.357 89.2857L615.357 94.2857Z" fill="#BFC1C4"/>
<path d="M670.357 84.2857H631.429C631.429 92.8571 636.429 99.6429 645 99.6429C651.072 99.6429 656.786 96.0714 659.286 90.3571L668.929 94.2857C663.214 105 656.786 109.643 644.643 109.643C626.429 109.643 618.929 94.2857 618.929 81.0714C618.929 67.8571 626.429 52.5 644.643 52.5C662.143 52.5 670 66.7857 670 79.2857V84.2857H670.357ZM631.786 75H658.572C657.5 68.2143 652.857 62.8571 645.357 62.8571C637.857 62.8571 632.857 67.8571 631.786 75Z" fill="#BFC1C4"/>
<path d="M314.285 52.8572C317.143 52.8572 319.643 53.5715 322.857 55C325.714 56.4286 327.857 57.8572 329.285 59.6429V53.5715H340.714V108.929H331.071L329.285 102.5C327.143 106.071 321.071 109.643 314.285 109.643C298.214 109.643 289.643 99.2858 289.643 81.0715C289.285 63.9286 297.857 52.8572 314.285 52.8572ZM301.429 81.4286C301.429 87.1429 302.857 91.4286 305.357 95C307.857 98.2143 311.429 100 315.357 100C319.643 100 322.857 98.2143 325.357 95C327.857 91.7857 329.285 87.1429 329.285 81.4286C329.285 75.7143 327.857 71.4286 325.357 68.2143C322.857 65 319.286 63.2143 315.357 63.2143C311.071 63.2143 307.857 65 305.357 68.2143C302.857 71.0715 301.429 75.7143 301.429 81.4286Z" fill="#2B4A78"/>
<path d="M533.214 52.8572C536.071 52.8572 538.571 53.5715 541.786 55C544.643 56.4286 546.786 57.8572 548.214 59.6429V53.5715H559.643V108.929H550L548.214 102.5C546.071 106.071 540 109.643 533.214 109.643C517.143 109.643 508.571 99.2858 508.571 81.0715C508.214 63.9286 516.786 52.8572 533.214 52.8572ZM520.357 81.4286C520.357 87.1429 521.786 91.4286 524.286 95C526.786 98.2143 530.357 100 534.286 100C538.571 100 541.786 98.2143 544.286 95C546.786 91.7857 548.214 87.1429 548.214 81.4286C548.214 75.7143 546.786 71.4286 544.286 68.2143C541.786 65 538.214 63.2143 534.286 63.2143C530 63.2143 526.786 65 524.286 68.2143C521.428 71.0715 520.357 75.7143 520.357 81.4286Z" fill="#BFC1C4"/>
<defs>
<clipPath id="clip0_104_752">
<rect width="150" height="150" rx="75" fill="white"/>
</clipPath>
</defs>
</svg>
